<svg id="svg" xmlns="http://www.w3.org/2000/svg" xmlns:xlink="http://www.w3.org/1999/xlink" width="400" height="345.5497382198953" viewBox="0, 0, 400,345.5497382198953"><g id="svgg"><path id="path0" d="M190.711 12.171 C 168.075 23.450,180.130 58.168,205.211 53.931 C 213.467 52.536,221.331 44.702,222.898 36.311 C 226.419 17.465,207.924 3.593,190.711 12.171 M170.157 125.843 C 153.455 161.037,139.317 190.483,138.738 191.278 C 137.915 192.409,127.440 183.750,90.571 151.462 C 64.657 128.768,43.293 110.345,43.095 110.522 C 42.538 111.018,68.258 270.576,69.037 271.458 C 69.414 271.886,75.136 270.643,81.751 268.696 C 150.958 248.332,257.129 248.825,323.920 269.822 C 328.437 271.242,332.413 272.125,332.754 271.783 C 333.508 271.030,359.217 113.093,358.878 111.304 C 358.746 110.610,337.442 128.617,311.535 151.320 C 285.628 174.023,264.106 192.261,263.709 191.849 C 262.813 190.919,204.385 68.633,202.938 64.660 C 201.276 60.096,201.991 58.763,170.157 125.843 M24.770 64.307 C 13.222 68.560,9.008 82.648,16.484 92.008 C 24.380 101.897,37.359 101.950,45.200 92.127 C 56.108 78.463,41.254 58.236,24.770 64.307 M365.114 64.344 C 346.063 71.139,350.880 99.476,371.086 99.476 C 391.896 99.476,396.164 69.480,376.145 63.920 C 371.213 62.550,370.015 62.597,365.114 64.344 M163.874 276.550 C 132.199 278.921,109.880 283.196,73.037 293.950 C 71.415 294.424,71.204 296.023,71.204 307.847 C 71.204 325.694,70.292 325.097,89.904 320.093 C 162.537 301.563,249.928 302.361,313.278 322.134 C 331.121 327.704,330.890 327.875,330.890 309.099 L 330.890 294.592 326.963 293.338 C 279.728 278.248,221.403 272.244,163.874 276.550 " stroke="none" fill="#000000" fill-rule="evenodd"></path></g></svg>