<svg id="svg" xmlns="http://www.w3.org/2000/svg" xmlns:xlink="http://www.w3.org/1999/xlink" width="400" height="53.26633165829146" viewBox="0, 0, 400,53.26633165829146"><g id="svgg"><path id="path0" d="M144.054 27.973 L 144.054 49.916 148.660 49.916 L 153.266 49.916 153.255 44.263 C 153.248 40.849,153.163 37.996,153.040 37.060 L 152.836 35.511 154.294 35.511 L 155.752 35.511 159.809 42.253 C 162.041 45.961,164.012 49.202,164.189 49.456 L 164.512 49.916 169.609 49.916 C 172.641 49.916,174.707 49.853,174.707 49.760 C 174.707 49.336,165.066 34.985,164.000 33.823 L 162.836 32.555 163.309 32.276 C 164.090 31.814,172.120 21.557,173.594 19.137 C 173.695 18.972,172.640 18.928,168.531 18.928 L 163.341 18.928 159.540 24.288 L 155.739 29.648 154.318 29.648 L 152.898 29.648 153.009 28.853 C 153.070 28.415,153.159 23.101,153.205 17.044 L 153.290 6.030 148.672 6.030 L 144.054 6.030 144.054 27.973 M315.245 25.168 C 315.247 45.824,315.214 45.034,316.145 46.865 C 317.693 49.913,322.182 51.217,326.895 49.990 C 328.251 49.637,328.227 49.696,327.898 47.521 L 327.609 45.608 325.488 45.521 C 323.182 45.427,322.370 45.200,321.552 44.422 C 320.555 43.471,320.603 44.488,320.603 24.435 L 320.603 6.030 317.923 6.030 L 315.243 6.030 315.245 25.168 M369.347 27.214 L 369.347 48.397 370.980 48.910 C 379.602 51.618,389.281 51.037,393.007 47.588 C 396.779 44.097,398.153 33.684,395.878 25.832 C 393.432 17.394,383.379 15.968,375.395 22.927 L 374.157 24.007 374.271 23.399 C 374.576 21.775,374.696 18.777,374.701 12.688 L 374.707 6.030 372.027 6.030 L 369.347 6.030 369.347 27.214 M21.776 6.462 C 14.753 8.310,12.564 15.970,16.973 23.268 C 18.002 24.973,18.049 25.190,17.266 24.632 C 7.370 17.586,-3.781 31.786,5.077 40.155 C 9.223 44.073,13.932 43.545,20.771 38.397 L 22.194 37.325 22.251 37.800 C 22.340 38.536,21.951 41.292,21.517 43.007 C 20.592 46.661,18.457 48.953,14.908 50.102 C 14.003 50.395,14.164 50.401,24.037 50.400 L 34.087 50.400 32.825 49.944 C 28.543 48.397,26.814 45.818,26.033 39.814 C 25.684 37.130,25.672 37.152,26.968 38.194 C 35.246 44.844,43.232 43.812,45.775 35.762 C 48.598 26.827,39.364 19.715,31.172 24.516 C 30.610 24.846,30.151 25.088,30.151 25.055 C 30.151 25.021,30.549 24.360,31.035 23.585 C 34.455 18.138,34.290 12.705,30.590 8.960 C 28.266 6.607,24.875 5.647,21.776 6.462 M65.906 6.742 C 65.863 6.857,65.846 16.600,65.870 28.392 L 65.913 49.832 70.644 49.877 L 75.374 49.921 75.417 40.245 L 75.461 30.570 83.039 30.526 L 90.617 30.482 90.660 40.157 L 90.704 49.832 95.436 49.877 L 100.168 49.921 100.168 28.224 L 100.168 6.527 95.436 6.572 L 90.704 6.616 90.660 14.866 L 90.617 23.116 82.997 23.116 L 75.377 23.116 75.377 14.824 L 75.377 6.533 70.682 6.533 C 67.079 6.533,65.968 6.581,65.906 6.742 M118.425 18.260 C 115.079 18.528,108.735 19.377,108.499 19.588 C 108.386 19.689,109.155 25.624,109.300 25.770 C 109.332 25.803,111.000 25.738,113.008 25.627 C 125.805 24.917,127.299 25.314,127.302 29.424 L 127.303 30.624 120.645 30.698 C 111.656 30.799,109.564 31.441,107.828 34.631 C 106.303 37.433,106.520 43.937,108.228 46.597 C 111.825 52.203,122.558 51.763,127.798 45.796 C 128.438 45.066,128.362 44.981,128.715 46.817 C 128.875 47.647,129.082 48.684,129.174 49.124 L 129.342 49.923 132.971 49.878 L 136.600 49.832 136.599 38.275 C 136.597 25.256,136.609 25.399,135.346 22.837 C 133.385 18.860,128.259 17.473,118.425 18.260 M189.028 18.327 C 180.864 19.524,177.586 24.107,177.559 34.362 C 177.525 46.914,183.476 51.630,197.841 50.434 C 201.554 50.124,206.717 48.919,207.096 48.272 C 207.167 48.151,206.375 42.675,206.271 42.566 C 206.237 42.531,205.284 42.587,204.152 42.691 C 191.160 43.882,188.418 43.121,187.543 38.078 L 187.451 37.547 194.354 37.473 C 201.708 37.394,202.094 37.356,203.967 36.511 C 209.425 34.051,209.339 23.796,203.832 20.255 C 201.106 18.503,194.073 17.587,189.028 18.327 M231.072 18.338 C 228.420 18.922,225.994 20.180,223.264 22.387 C 221.916 23.478,222.012 23.481,221.879 22.348 C 221.819 21.833,221.686 20.853,221.585 20.170 L 221.400 18.928 217.735 18.928 L 214.070 18.928 214.070 34.425 L 214.070 49.922 218.635 49.877 L 223.199 49.832 223.242 39.155 L 223.286 28.478 225.504 27.403 C 229.056 25.682,231.155 25.466,232.472 26.686 C 233.250 27.407,233.245 27.345,233.333 38.861 L 233.417 49.832 237.814 49.877 L 242.211 49.922 242.211 39.290 L 242.211 28.658 244.012 27.642 C 246.967 25.976,249.518 25.497,251.108 26.308 C 252.388 26.961,252.339 26.481,252.393 38.903 L 252.440 49.916 257.041 49.916 L 261.642 49.916 261.640 37.730 C 261.639 24.493,261.613 24.044,260.730 22.168 C 258.224 16.846,249.710 16.651,243.330 21.770 C 241.575 23.178,241.869 23.166,241.204 21.856 C 239.662 18.817,235.486 17.367,231.072 18.338 M293.719 18.774 C 286.023 19.821,283.016 24.267,283.021 34.590 C 283.026 46.305,286.954 50.586,297.699 50.586 C 300.866 50.586,304.134 50.154,306.763 49.388 L 307.915 49.052 307.807 48.270 C 307.490 45.954,307.338 45.382,307.059 45.460 C 305.073 46.019,296.239 46.169,294.484 45.673 C 289.953 44.393,288.309 40.856,288.670 33.166 C 288.979 26.587,290.637 24.192,295.477 23.329 C 296.890 23.077,303.495 23.114,305.794 23.387 L 306.647 23.488 306.934 22.004 C 307.093 21.187,307.257 20.399,307.299 20.251 C 307.589 19.247,297.947 18.198,293.719 18.774 M333.540 31.868 C 333.600 45.681,333.554 45.022,334.614 47.116 C 337.080 51.986,345.691 51.779,353.324 46.666 C 354.230 46.058,354.994 45.561,355.021 45.561 C 355.047 45.561,355.120 46.296,355.182 47.194 C 355.245 48.093,355.337 49.072,355.388 49.372 L 355.481 49.916 357.556 49.916 L 359.631 49.916 359.631 34.585 L 359.631 19.254 356.993 19.301 L 354.355 19.347 354.312 30.518 L 354.269 41.689 352.470 42.768 C 346.649 46.261,342.108 46.992,339.998 44.777 C 338.922 43.647,338.950 43.992,338.897 31.030 L 338.850 19.263 336.168 19.263 L 333.485 19.263 333.540 31.868 M387.393 23.742 C 390.236 24.858,391.316 27.744,391.327 34.255 C 391.338 41.292,389.948 44.479,386.379 45.602 C 384.293 46.258,379.472 46.114,375.838 45.289 L 374.707 45.032 374.707 36.339 L 374.707 27.647 376.576 26.324 C 380.830 23.311,384.227 22.500,387.393 23.742 M196.482 25.132 C 198.243 25.603,198.744 26.400,198.744 28.727 C 198.744 31.786,198.658 31.826,192.111 31.826 L 187.226 31.826 187.343 30.611 C 187.731 26.571,188.831 25.343,192.462 24.897 C 193.277 24.797,195.775 24.943,196.482 25.132 M127.303 38.518 L 127.303 40.687 126.551 41.205 C 122.762 43.812,117.984 44.346,116.543 42.323 C 116.015 41.582,115.900 38.589,116.364 37.688 C 116.998 36.461,117.531 36.348,122.732 36.348 L 127.303 36.348 127.303 38.518 M270.524 42.597 C 269.636 42.902,269.520 43.310,269.517 46.114 C 269.513 49.478,269.593 49.627,271.503 49.843 C 272.994 50.012,274.335 49.801,274.813 49.323 C 275.319 48.817,275.433 43.777,274.953 43.092 C 274.480 42.416,271.892 42.127,270.524 42.597 " stroke="none" fill="#000000" fill-rule="evenodd"></path></g></svg>